<svg xmlns="http://www.w3.org/2000/svg" width="128.451" height="110.75" viewBox="0 0 128.451 110.75">
  <g id="Group_3659" data-name="Group 3659" transform="translate(-171 -2923.369)">
    <g id="Group_2612" data-name="Group 2612" transform="translate(171 2923.369)">
      <g id="Group_177" data-name="Group 177" transform="translate(46.449 105.146)" opacity="0.26">
        <path id="Path_4547" data-name="Path 4547" d="M97.1,187.488q40.928-1.424,81.856.73" transform="translate(-97.1 -184.513)" fill="#e6aa55"/>
        <g id="Group_176" data-name="Group 176" transform="translate(0)">
          <g id="Group_175" data-name="Group 175">
            <g id="Group_174" data-name="Group 174">
              <g id="Group_173" data-name="Group 173">
                <path id="Path_4548" data-name="Path 4548" d="M223.987,185.765c.146.073.073-.292.146-.365C223.84,185.473,223.987,185.911,223.987,185.765Z" transform="translate(-142.131 -184.105)" fill="#ecbe7e"/>
                <path id="Path_4549" data-name="Path 4549" d="M220.692,186.846l.073-.146-.365.365Z" transform="translate(-141.173 -184.455)" fill="#ecbe7e"/>
                <path id="Path_4550" data-name="Path 4550" d="M217.9,186.746c.146.584.8-.073,1.169.146l.073.146.219-.438C218.849,186.6,218.265,186.892,217.9,186.746Z" transform="translate(-140.499 -184.428)" fill="#ecbe7e"/>
                <path id="Path_4551" data-name="Path 4551" d="M216.493,184.9c.073.219-.219.219.292.073a.072.072,0,0,0-.073-.073C216.639,184.973,216.566,184.9,216.493,184.9Z" transform="translate(-140.115 -183.97)" fill="#ecbe7e"/>
                <path id="Path_4552" data-name="Path 4552" d="M216.787,184.876c.219,0-.146-.146,0,0Z" transform="translate(-140.189 -183.946)" fill="#ecbe7e"/>
                <path id="Path_4553" data-name="Path 4553" d="M215.342,184.911l.292-.219c-.073-.146-.292-.146-.219-.292C215.123,184.546,215.123,184.692,215.342,184.911Z" transform="translate(-139.767 -183.835)" fill="#ecbe7e"/>
                <path id="Path_4554" data-name="Path 4554" d="M214.9,185.646l.146-.073C215.046,185.5,215.046,185.427,214.9,185.646Z" transform="translate(-139.69 -184.132)" fill="#ecbe7e"/>
                <path id="Path_4555" data-name="Path 4555" d="M215.465,185.3l-.365.146c.073.073,0,.292.146-.073C215.246,185.592,215.319,185.446,215.465,185.3Z" transform="translate(-139.744 -184.078)" fill="#ecbe7e"/>
                <path id="Path_4556" data-name="Path 4556" d="M215.9,185.4c.146.146.365.219.073.438C216.484,185.765,216.411,185.4,215.9,185.4Z" transform="translate(-139.96 -184.105)" fill="#ecbe7e"/>
                <path id="Path_4557" data-name="Path 4557" d="M217.8,187.569l.219.219.219-.219C218.092,187.642,217.8,187.35,217.8,187.569Z" transform="translate(-140.472 -184.667)" fill="#ecbe7e"/>
                <path id="Path_4558" data-name="Path 4558" d="M212.9,184.5c0,.146.073.365.073.511l.219-.146C213.119,184.792,212.9,184.719,212.9,184.5Z" transform="translate(-139.151 -183.862)" fill="#ecbe7e"/>
                <path id="Path_4559" data-name="Path 4559" d="M212.865,185.2l-.365.219C212.792,185.492,212.865,185.346,212.865,185.2Z" transform="translate(-139.043 -184.051)" fill="#ecbe7e"/>
                <path id="Path_4560" data-name="Path 4560" d="M214.773,186.438l.584-.438-.657.438Z" transform="translate(-139.636 -184.267)" fill="#ecbe7e"/>
                <path id="Path_4561" data-name="Path 4561" d="M211.146,184.392l.146-.292-.292.438Z" transform="translate(-138.638 -183.754)" fill="#ecbe7e"/>
                <path id="Path_4562" data-name="Path 4562" d="M209.784,184.284c.146-.219-.146-.438,0-.584-.219,0-.438.219-.584.438A.494.494,0,0,1,209.784,184.284Z" transform="translate(-138.153 -183.646)" fill="#ecbe7e"/>
                <path id="Path_4563" data-name="Path 4563" d="M208.8,184.492c.073-.073.219-.146.292-.292C209.019,184.346,208.873,184.419,208.8,184.492Z" transform="translate(-138.045 -183.781)" fill="#ecbe7e"/>
                <path id="Path_4564" data-name="Path 4564" d="M211.719,185.265a.5.5,0,0,0-.219-.365l.146.365Z" transform="translate(-138.773 -183.97)" fill="#ecbe7e"/>
                <path id="Path_4565" data-name="Path 4565" d="M211.492,185.373h0c-.146,0-.219-.073-.292-.073C211.273,185.373,211.346,185.373,211.492,185.373Z" transform="translate(-138.692 -184.078)" fill="#ecbe7e"/>
                <path id="Path_4566" data-name="Path 4566" d="M211.8,185.4Z" transform="translate(-138.854 -184.105)" fill="#ecbe7e"/>
                <path id="Path_4567" data-name="Path 4567" d="M213.562,186.1c-.219.219-.584.365-.219.73C213.489,186.538,213.27,186.392,213.562,186.1Z" transform="translate(-139.228 -184.294)" fill="#ecbe7e"/>
                <path id="Path_4568" data-name="Path 4568" d="M212,185.892l.365.073a.37.37,0,0,1,.073-.365Z" transform="translate(-138.908 -184.159)" fill="#ecbe7e"/>
                <path id="Path_4569" data-name="Path 4569" d="M211.8,186.146l.146-.146h-.073Z" transform="translate(-138.854 -184.267)" fill="#ecbe7e"/>
                <path id="Path_4570" data-name="Path 4570" d="M209.411,185.1a.616.616,0,0,1-.511.146,1.719,1.719,0,0,0,.584.146C209.484,185.319,209.63,185.1,209.411,185.1Z" transform="translate(-138.072 -184.024)" fill="#ecbe7e"/>
                <path id="Path_4571" data-name="Path 4571" d="M210.6,185.3Z" transform="translate(-138.531 -184.078)" fill="#ecbe7e"/>
                <path id="Path_4572" data-name="Path 4572" d="M206.4,185.3Z" transform="translate(-137.398 -184.078)" fill="#ecbe7e"/>
                <path id="Path_4573" data-name="Path 4573" d="M209.7,185.546c.146.073.219,0,.292-.146a.379.379,0,0,1-.292.146Z" transform="translate(-138.288 -184.105)" fill="#ecbe7e"/>
                <path id="Path_4574" data-name="Path 4574" d="M208.1,184.795l.219.219C208.246,184.941,208.1,184.722,208.1,184.795Z" transform="translate(-137.856 -183.938)" fill="#ecbe7e"/>
                <path id="Path_4575" data-name="Path 4575" d="M210.48,185.18Z" transform="translate(-138.483 -184.031)" fill="#ecbe7e"/>
                <path id="Path_4576" data-name="Path 4576" d="M210.419,185.2l-.219.219c.073,0,.146-.073.219-.146Z" transform="translate(-138.423 -184.051)" fill="#ecbe7e"/>
                <path id="Path_4577" data-name="Path 4577" d="M205.363,187.564c.073-.365.438-.657.73-.292.365-.219.146-1.315-.073-1.972,0,.146,0,.292-.365.438.146.219.73.438.438.73-.438.146-.365-.146-.584-.292.146.438-.584.584-.511,1.169l.438-.219C205.436,187.345,205.29,187.491,205.363,187.564Z" transform="translate(-137.018 -184.078)" fill="#ecbe7e"/>
                <path id="Path_4578" data-name="Path 4578" d="M207.084,185.238h.146a1.241,1.241,0,0,1-.438-.438c-.219.146-.292.292-.292.365l.584.073Z" transform="translate(-137.425 -183.943)" fill="#ecbe7e"/>
                <path id="Path_4579" data-name="Path 4579" d="M208.157,185.319c-.146.365-.438.511-.292.876.438,0,.292-.292.584-.438-.657.073.146-.146-.292-.438a.658.658,0,0,0,.365-.073c-.146-.073-.219-.073-.365-.146h0v.073h0v.146c-.219-.073,0-.073,0-.146V185.1h0l-.657.146C207.646,185.392,207.865,185.392,208.157,185.319Z" transform="translate(-137.695 -184.024)" fill="#ecbe7e"/>
                <path id="Path_4580" data-name="Path 4580" d="M212.788,188.073V188S212.715,188.073,212.788,188.073Z" transform="translate(-139.112 -184.806)" fill="#ecbe7e"/>
                <path id="Path_4581" data-name="Path 4581" d="M212.388,187.476c.073-.073.073-.219.219-.146.146.146,0,.146,0,.292.073-.073.365-.219.073-.438l-.073.073c-.292-.146-.584-.584-.511-.657A6.132,6.132,0,0,0,212.388,187.476Z" transform="translate(-138.931 -184.428)" fill="#ecbe7e"/>
                <path id="Path_4582" data-name="Path 4582" d="M210.184,186.7l-.584.146.292.292v-.219C210.184,187.065,210.111,186.846,210.184,186.7Z" transform="translate(-138.261 -184.455)" fill="#ecbe7e"/>
                <path id="Path_4583" data-name="Path 4583" d="M206.219,184.865l.073-.365-.292.511Z" transform="translate(-137.29 -183.862)" fill="#ecbe7e"/>
                <path id="Path_4584" data-name="Path 4584" d="M205.246,184.965l.073-.365-.219.219Z" transform="translate(-137.047 -183.889)" fill="#ecbe7e"/>
                <path id="Path_4585" data-name="Path 4585" d="M149.746,189.7l-.146.073C149.6,189.7,149.673,189.7,149.746,189.7Z" transform="translate(-115.735 -185.264)" fill="#ecbe7e"/>
                <path id="Path_4586" data-name="Path 4586" d="M151.38,189.646V189.5C151.307,189.573,151.307,189.646,151.38,189.646Z" transform="translate(-116.343 -185.21)" fill="#ecbe7e"/>
                <path id="Path_4587" data-name="Path 4587" d="M181.034,184.191c-.219-.292-.511-.8-.438-.438l.073.365A.8.8,0,0,1,181.034,184.191Z" transform="translate(-126.757 -183.627)" fill="#ecbe7e"/>
                <path id="Path_4588" data-name="Path 4588" d="M164.6,187.019a.255.255,0,0,1,.073.146c.073-.146.146-.219.146-.365Z" transform="translate(-121.064 -184.482)" fill="#ecbe7e"/>
                <path id="Path_4589" data-name="Path 4589" d="M164.192,189.119l-.292-.219A1.009,1.009,0,0,0,164.192,189.119Z" transform="translate(-120.82 -185.049)" fill="#ecbe7e"/>
                <path id="Path_4590" data-name="Path 4590" d="M140.919,190.2l-.219.365C140.992,190.565,140.846,190.346,140.919,190.2Z" transform="translate(-112.579 -185.399)" fill="#ecbe7e"/>
                <path id="Path_4591" data-name="Path 4591" d="M195.111,184.819a.971.971,0,0,0-.511-.219C194.819,184.819,195.038,185.111,195.111,184.819Z" transform="translate(-131.741 -183.889)" fill="#ecbe7e"/>
                <path id="Path_4592" data-name="Path 4592" d="M150.346,184.4c-.073.073-.146.146-.146.219C150.273,184.546,150.346,184.473,150.346,184.4Z" transform="translate(-115.948 -183.835)" fill="#ecbe7e"/>
                <path id="Path_4593" data-name="Path 4593" d="M193.8,184.538a.072.072,0,0,0,.073.073,1.083,1.083,0,0,1,.511-.073C194.165,184.392,193.946,184.246,193.8,184.538Z" transform="translate(-131.464 -183.827)" fill="#ecbe7e"/>
                <path id="Path_4594" data-name="Path 4594" d="M109.1,190.2Z" transform="translate(-100.336 -185.399)" fill="#ecbe7e"/>
                <path id="Path_4595" data-name="Path 4595" d="M99.7,185.48h.292C99.919,185.407,99.846,185.407,99.7,185.48Z" transform="translate(-97.801 -184.111)" fill="#ecbe7e"/>
                <path id="Path_4596" data-name="Path 4596" d="M201.4,184.7Z" transform="translate(-136.05 -183.916)" fill="#ecbe7e"/>
                <path id="Path_4597" data-name="Path 4597" d="M202.273,186.7c0,.073-.073.073-.073.146A.226.226,0,0,0,202.273,186.7Z" transform="translate(-136.265 -184.455)" fill="#ecbe7e"/>
                <path id="Path_4598" data-name="Path 4598" d="M191.6,187.6Z" transform="translate(-130.631 -184.698)" fill="#ecbe7e"/>
                <path id="Path_4599" data-name="Path 4599" d="M201.619,184.846c-.073-.073-.146-.073-.219-.146C201.473,184.773,201.546,184.846,201.619,184.846Z" transform="translate(-136.05 -183.916)" fill="#ecbe7e"/>
                <path id="Path_4600" data-name="Path 4600" d="M201.7,184.689c.073,0,.073,0,.146.073C201.846,184.689,201.773,184.616,201.7,184.689Z" transform="translate(-136.131 -183.905)" fill="#ecbe7e"/>
                <path id="Path_4601" data-name="Path 4601" d="M201.1,184.7a.268.268,0,0,1,.219.073s-.073-.073,0-.073Z" transform="translate(-135.969 -183.916)" fill="#ecbe7e"/>
                <path id="Path_4602" data-name="Path 4602" d="M126.149,188.6h0C125.93,188.673,126,188.673,126.149,188.6Z" transform="translate(-107.362 -184.968)" fill="#ecbe7e"/>
                <path id="Path_4603" data-name="Path 4603" d="M175.6,189.5Z" transform="translate(-124.954 -185.21)" fill="#ecbe7e"/>
                <path id="Path_4604" data-name="Path 4604" d="M174.9,189.315c.219-.438.365-.365.511-.292L175.265,188Z" transform="translate(-124.742 -184.806)" fill="#ecbe7e"/>
                <path id="Path_4605" data-name="Path 4605" d="M133.037,188.171l.365.292c-.438.511-.8.365-.438.8.073-1.169,1.461-.146,1.534-1.242l.219.219c-.073,0-.073.073-.146.073.511.511.365-.8,1.022-.657.219.073.365.219.219.365l.511-.292c.146,0,.073.219,0,.219l.73-.073h0c.073-.146.365-.438.438-.584.219.146-.073.146-.073.292l.438-.292a.372.372,0,0,1-.438.511c.365,1.169.365-.292,1.169.365l-.365.146c.219.657.584.438,1.022.8-.073-.219-.876-1.022-.438-1.315a.365.365,0,0,0,.511-.073c0,.438.219.292.511.292v.511c.292-.146.292-.438.511-.657.365.073.438.438.511.8.584.073-.365-.657.292-.73.511.219.8,0,1.388-.292.365.219-.073.292.073.511l.292-.438c.073,0,.073.146,0,.219.219-.146,0-.511.438-.657.146-.584.8.876,1.315.219.146.146-.073.292,0,.511a3.233,3.233,0,0,0,1.1-.876l.438.365c-.365-.438.073-.876.511-1.242a4.326,4.326,0,0,0-.292-.438l.584-.292c.073.073,0,.292-.073.511l.146-.146c.219.219.073.511-.073.8a1.6,1.6,0,0,1-.219-.365,2.377,2.377,0,0,0-.292,1.022c.073-.073.146-.146.219-.146a.268.268,0,0,0-.073.219c0,.073.073-.073.219-.219l.146.584v-.219l.8.365c.584-.584,1.1-1.461,1.972-1.68-.219.438-.073.73-.073,1.242-.219-.584-.73.219-1.169.073a.236.236,0,0,1,.146.365l.876-.511c0,.438.146.292.365.511-.146-.8.657-.584.949-.8,0,.292-.073.584-.511.511.438.657.584-.949,1.022-.438-.073,0-.146-.073-.219.073.219-.219.8-.073.657.219h-.073c.657.146,2.045.073,2.191-.657a5.727,5.727,0,0,1-.146,1.022l1.242-2.337c-.146.584.292,2.045-.292,2.41a.638.638,0,0,0,.73,0c-.073-.073-.292-.876-.073-.949.365.657.292.365.8.949-.146-.146.073-1.1.292-1.022-.073.146,0,.949-.073,1.022l.657-.949c-.146.146-.073.8.073,1.1-.073-.219.584,0,.73-.073l-.292-.219c.73.146.73-1.315,1.461-1.242-.073.219-.219,1.169.146,1.315.146-.511.8-2.264,1.461-2.629l.146.292.511-.292a17.521,17.521,0,0,1-1.68,2.775c.292.219.073.292.511.292.146.292-.219.365-.365.365l.949.219c0-.584.73-.584.73-1.022l-1.022.584c0-.584.657-1.607,1.315-1.461.146.219-.146,1.022-.146,1.169.073-.219.657-.365.73-.219l-.292.292c.365.219.657-.73,1.1-.146.146.073.438.73.511.438a9.149,9.149,0,0,1-.073-3.14,5.762,5.762,0,0,1,.949.949c.219.511-.438,1.169-.219,1.607,0-.146.146-.365.219-.365.146.146-.073.438.292.438.073-.584.73.073.146-.511.365-.146.365.146.8.146-.146-.365.365-1.242.73-1.388,0,.146.073.365.073.438.73.073,1.1.365,1.753.365.073.146.365.292.219.584.073-.073.219-.292.365-.292.365.511-.438.073-.146.657,0-.365.511-.438.876-.657-.073-.511-.657-.146-.949.073a2.1,2.1,0,0,1,1.242-1.753c.584-.146.219.438.292.365,1.022.146.949-1.169,1.753-.657.292.438,0,.876.073,1.241-.438.146-.657-.292-1.022-.292l.365.219a.606.606,0,0,1-.584.146c.292.438,1.753.146,2.556.511.146-.146.365-.292.292-.511l-.292.073c-.219-.365.511-.511.146-.657.365-.219.73-.657,1.242-.438l.073.511a.28.28,0,0,0-.438-.146c.219-.219.73.73.949.073l-.292-.365c.365-.219.8-.8,1.242-.584-.146-.511-.073.073-.365-.584.219.73-1.1-.073-.657.73-.292-.73-.511-.292-.876-.876,0,.146.146.292-.219.219a.255.255,0,0,1-.073.146h0a.379.379,0,0,1,.146.292c-.219.365-.73.365-.949.511-.219-.073.073-.219,0-.365l-.292.292c0-.365-.511-.657,0-.876h-.438a.8.8,0,0,0-.876-.146c-.219-.073-.584.365-.365.146l-.73.219v-.073c-.657-.073-1.461.584-2.191-.146a1.15,1.15,0,0,1-.876.073l-.073-.292c-.292.073-.876-.365-1.022,0-.292-.876-1.461-.219-1.972-.365v.438a3.633,3.633,0,0,0-1.169.219v.365c-.365.292-1.022-.292-1.607-.292.073-.146.219-.073.292,0-.73-.876-1.534.584-2.191-.073-.146.146-.292.073-.438,0h0l-.219-.219.219.219a1.859,1.859,0,0,0-.511.146l-.073-.438h-.073c-.219-.146-.146.219-.073.511-.073.073-.219.146-.292.219-.146-.657-.511.219-.73-.511-.146.365-.949.219-1.1.949,0-.073-.073-.146.073-.146-.219-.073-.438-.146-.584,0l-.073-.511-.511.657c-.292-.292-.365-.511-.073-.876-.657.584-.584.219-1.169.8v-.365c-.219,0-.511.438-.657.146-.438-.657-2.264-.146-3.433-.73.219.949-.511-.438-.584.292-.073-.219-.219-.365,0-.584-.584.219-.876-.365-1.315.292-.073-.219.146-.365.073-.438-.073.073-.219.219-.219.073-.073-.146.073-.219.219-.292-.584,0-.657.73-.73,1.388-.292-.292-.438-.292-.657.146-.073-.219-.292-.438.073-.511-.219,0-1.315-.365-1.315.219-.073-.146-.292-.073-.365,0a4.82,4.82,0,0,0-1.022-.073l.146.073c-.219.657-.365.146-.8.219v-.073c-.876-.438-.365.219-1.242-.292l.073.365c-.073.876-.73-.511-1.242-.219l.146.219c-.292.292-.73-1.169-1.022-1.315-.073-.073.073-.146.146-.146-.73-.511-.073.511-.657.657-.073-.292.146-.73-.219-.8-.146-.219-1.022.876-1.534.365.073.219.219.438,0,.584-.365.073-1.022-.8-1.388-.146a.226.226,0,0,1-.073-.146c-.292.146-.949.292-1.1.657-.292-1.388-1.826.657-1.826-.584l-.876.073v-.146a.819.819,0,0,0-.949.511c-.146-.073,0-.219,0-.292-.8-.219-.949-.219-1.607.438l-.073-.438c-.219.219-1.242-.657-2.045-.146a.268.268,0,0,1,.073-.219c-.949.511-2.191-1.169-2.556.365l-.584.365c.8.146-.146.657.219.876-.292.073-.8-.438-.438-.511l.073.073c.146-.8-.949-.292-.949-.8-1.534.073-3.067-.365-4.528-.365l.146.584h-.511c-.146-.146-.219-.511.146-.438-.219-.365-.584.292-.584.438-.73-.219.292-.73.073-.73l-.292.073.073.073c-.219.219-.219.511-.657.511-.292-.146-.146-.365-.292-.365,0-.073-.073-.073-.146,0l-.657-.073.292.511c-.292.219-.584,0-.292.511-.438-.8-2.41-.292-2.629-.511a1.306,1.306,0,0,1-1.242.292c.146.073.219.657-.219.584.146-1.1-.8-.438-1.1-1.242.292.511-1.169.146-.73.876-.365-.073,0-.438-.292-.657-.8.438-1.826-.219-2.848-.073,0,.146.146.365-.073.584l-.584-.73c-.219.073-.146.876-.584.365.073.146.146.292,0,.365-2.045-.657-4.09.657-6.208-.584.292.292.073.292-.146.292.146.073,0,.365.073.584l-.876-.511c-.146.584-.949.073-1.022.584l.292-.073c-.365.657.511,1.388.511,2.191.365-.73,1.1,1.022,1.753,0,.146.146-.146.292,0,.438.146-.365.365-.438.73-.292l-.073.073c1.022-.146,1.534.219,2.7.438l-.073-.365c.292.073.292.146.438.292.292-.584-.73,0-.438-.657.365.8,1.826,0,2.045.876.365,0-.146-.438.292-.438l.146.219.073-.292c.292.073.365.365.438.584-.073,0-.146.073-.219.073.365.292.949-.146,1.022,0l-.365-.146c1.1-.292,2.337,0,3.36-.511l-.073-.219c.8-.365.657.219,1.461,0v.073a.712.712,0,0,1,.657-.292c-.219.219.438.438.146.657.876-.365.438-.292.949-1.022l.146.292c.219-.292.219-.438.657-.511-.365.292.292.438-.073.8.949.657,1.315-.73,1.753.292.438-.876-.8-.438-.584-.657-.219-.292.365-.657.584-.584.292,0,.511,1.1,1.242,1.1-.073,0-.073.073-.146.073.292.219.511-.292.876.073.146-.511.438,0,.511-.657l-.657.146c.365-.146.73-.949,1.315-.584a1.936,1.936,0,0,1-.365.438c.219.219.365-.146.511.073-.073.657-.8.146-1.242.657.219.292.73-.511.584.219.292-.949.73.073,1.169-.584v.365a.621.621,0,0,1,.365-.219l-.219.511c.365-.438.8.365,1.169.146-.8,0-.219-.511-.511-.73.949-.511.584,1.022,1.68.8-.146.073-.584-.219-.365-.438a1.313,1.313,0,0,1,.657.438c.73-.073-.146-.438.219-.657.219.511.365-.219.657-.365v.438c.8.219.219-.876.949-.511l-.292.584.365-.146-.073.438a.709.709,0,0,1,.949-.146c-.073-.292.073-.73.438-.73.219.219-.146.365.365.292-.146.219-.219.584-.511.219,0,.146-.146.219-.146.365.292.292.657.073.876.073a.268.268,0,0,1-.219-.073l.73-.584c.146.146,0,.292-.073.365a3.168,3.168,0,0,1,.511-.292c-.073.292-.073.657-.365.8l.73-.365c.073.146.365.365.292.511.438.219.949-.657,1.534-.365,0-.073.073-.146.219-.146.511.073.949.438,1.534,0l.365.584c.438-.146-.438-.73.292-.949.511-.219.219.511.365.657.292-.292.73-.876,1.242-.438C133.329,188.244,133.183,188.1,133.037,188.171Zm5.77-.219c-.146.073-.365.365-.438.073C138.514,187.587,138.587,187.806,138.806,187.952ZM147.5,187c-.073.146-.219.073-.365-.073C147.278,186.857,147.351,186.93,147.5,187Zm24.393-2.264Zm.511.146c.073-.073.073-.146,0-.146-.073.073-.146.073-.292.073C172.182,184.958,172.255,185.031,172.4,184.885Zm-55.432-.292.073.073C116.823,184.812,116.9,184.739,116.969,184.593Z" transform="translate(-97.397 -183.662)" fill="#ecbe7e"/>
                <path id="Path_4606" data-name="Path 4606" d="M164.273,188.919c0-.073-.073-.146-.073-.219A.361.361,0,0,0,164.273,188.919Z" transform="translate(-120.913 -184.995)" fill="#ecbe7e"/>
                <path id="Path_4607" data-name="Path 4607" d="M141,190.1Z" transform="translate(-112.677 -185.372)" fill="#ecbe7e"/>
                <path id="Path_4608" data-name="Path 4608" d="M188.619,189.619l-.219-.219A.194.194,0,0,0,188.619,189.619Z" transform="translate(-129.514 -185.183)" fill="#ecbe7e"/>
                <path id="Path_4609" data-name="Path 4609" d="M203.465,184.5l-.365.073a.379.379,0,0,1,.292.146C203.392,184.646,203.319,184.5,203.465,184.5Z" transform="translate(-136.508 -183.862)" fill="#ecbe7e"/>
                <path id="Path_4610" data-name="Path 4610" d="M207.36,187.992c.073-.073.073,0,.146-.073V187.7C207.287,187.773,207.141,187.919,207.36,187.992Z" transform="translate(-137.628 -184.725)" fill="#ecbe7e"/>
                <path id="Path_4611" data-name="Path 4611" d="M203.9,186.346c0,.365.219.219.438.146h-.073C204.411,186.054,204.192,186.2,203.9,186.346Z" transform="translate(-136.724 -184.321)" fill="#ecbe7e"/>
                <path id="Path_4612" data-name="Path 4612" d="M204.6,186.557h.219C204.892,186.338,204.746,186.484,204.6,186.557Z" transform="translate(-136.913 -184.386)" fill="#ecbe7e"/>
                <path id="Path_4613" data-name="Path 4613" d="M200.625,184.946c.073.073.073-.438.146-.292C200.917,184.216,200.041,185.092,200.625,184.946Z" transform="translate(-135.786 -183.87)" fill="#ecbe7e"/>
                <path id="Path_4614" data-name="Path 4614" d="M204.019,187.738l-.073-.438-.146.365Z" transform="translate(-136.697 -184.617)" fill="#ecbe7e"/>
                <path id="Path_4615" data-name="Path 4615" d="M201.6,187.376l.365.146c0-.073.073-.073.073-.146C201.892,187.376,201.6,187.23,201.6,187.376Z" transform="translate(-136.104 -184.62)" fill="#ecbe7e"/>
                <path id="Path_4616" data-name="Path 4616" d="M202.3,187.373c.146,0,.219,0,.292-.073A.439.439,0,0,0,202.3,187.373Z" transform="translate(-136.292 -184.617)" fill="#ecbe7e"/>
                <path id="Path_4617" data-name="Path 4617" d="M203.265,188.046l-.073-.146H202.9Z" transform="translate(-136.454 -184.779)" fill="#ecbe7e"/>
                <path id="Path_4618" data-name="Path 4618" d="M196.031,187.1l-.438.073c-.073.146.073.219.219.146C195.958,187.319,196.1,187.246,196.031,187.1Z" transform="translate(-132.084 -184.563)" fill="#ecbe7e"/>
                <path id="Path_4619" data-name="Path 4619" d="M197.746,188.592a.554.554,0,0,1-.146-.292v.511Z" transform="translate(-132.773 -184.887)" fill="#ecbe7e"/>
                <path id="Path_4620" data-name="Path 4620" d="M196.09,188.9c-.073.146-.584.365-.073.365C196.09,189.119,196.455,188.973,196.09,188.9Z" transform="translate(-132.16 -185.049)" fill="#ecbe7e"/>
                <path id="Path_4621" data-name="Path 4621" d="M187.9,187.4h.146v-.8Z" transform="translate(-129.33 -184.428)" fill="#ecbe7e"/>
                <path id="Path_4622" data-name="Path 4622" d="M180.493,190.157c.438.219.146-.511.584-.292.146-.219-.365-.219-.219-.365C180.566,189.719,180.42,189.573,180.493,190.157Z" transform="translate(-126.732 -185.21)" fill="#ecbe7e"/>
                <path id="Path_4623" data-name="Path 4623" d="M181,189.446c.073,0,.073-.073.146-.146C181.073,189.373,181,189.373,181,189.446Z" transform="translate(-126.881 -185.156)" fill="#ecbe7e"/>
                <path id="Path_4624" data-name="Path 4624" d="M98.065,184.846,97.7,184.7l.219.219Z" transform="translate(-97.262 -183.916)" fill="#ecbe7e"/>
                <path id="Path_4625" data-name="Path 4625" d="M97.319,185.611l-.073-.511-.146.511C97.1,185.538,97.246,185.465,97.319,185.611Z" transform="translate(-97.1 -184.024)" fill="#ecbe7e"/>
                <path id="Path_4626" data-name="Path 4626" d="M154.792,190.892v-.146c-.073-.146-.146-.146-.292-.146Z" transform="translate(-117.482 -185.507)" fill="#ecbe7e"/>
                <path id="Path_4627" data-name="Path 4627" d="M149.173,190.211h.073l-.146-.511Z" transform="translate(-115.558 -185.264)" fill="#ecbe7e"/>
                <path id="Path_4628" data-name="Path 4628" d="M144.4,191.109c.146,0,.292-.073.438-.073C144.546,191.182,144.4,190.525,144.4,191.109Z" transform="translate(-113.902 -185.578)" fill="#ecbe7e"/>
              </g>
            </g>
          </g>
        </g>
      </g>
      <path id="Path_4629" data-name="Path 4629" d="M136.161,66.045a20.154,20.154,0,0,0-34.837-7.961A19.473,19.473,0,0,1,85.7,64.73h-.219A13.474,13.474,0,0,0,71.892,77.365,13.287,13.287,0,0,0,85.184,91.387a12.756,12.756,0,0,0,4.747-.876,29.442,29.442,0,0,1,20.011-.292,20.618,20.618,0,0,0,6.719,1.169,19.174,19.174,0,0,0,7.668-1.534,13.8,13.8,0,0,0,6.719,1.534,13.483,13.483,0,0,0,12.781-13.511A13.229,13.229,0,0,0,136.161,66.045Z" transform="translate(-43.847 -42.715)" fill="#e6aa55"/>
      <g id="Group_178" data-name="Group 178" transform="translate(31.197 11.498)">
        <path id="Path_4630" data-name="Path 4630" d="M82.631,74.211a8.916,8.916,0,0,0-3.652,1.972,9.269,9.269,0,0,0-2.337,3.433,6.9,6.9,0,0,0-.219,4.017,20.6,20.6,0,0,1,1.68-3.36,11.316,11.316,0,0,1,2.264-2.629,12.432,12.432,0,0,1,2.848-1.972,15.261,15.261,0,0,1,3.506-1.388A7.775,7.775,0,0,0,82.631,74.211Z" transform="translate(-76.217 -60.407)" fill="#fff"/>
        <path id="Path_4631" data-name="Path 4631" d="M118.772,55.984a14.56,14.56,0,0,0-5.7,3.359c-.365.365-.8.8-1.169,1.242l-1.022,1.169c-.657.73-1.388,1.461-2.118,2.191a44.436,44.436,0,0,1-4.966,3.8,15.72,15.72,0,0,0,5.916-2.483,17.436,17.436,0,0,0,2.556-2.045c.365-.365.8-.8,1.1-1.169a6.767,6.767,0,0,1,1.022-1.022,20.782,20.782,0,0,1,4.893-3.36,26.057,26.057,0,0,1,5.843-1.9A11.129,11.129,0,0,0,118.772,55.984Z" transform="translate(-83.655 -55.399)" fill="#fff"/>
      </g>
      <path id="Path_4632" data-name="Path 4632" d="M134.832,105.264a13.03,13.03,0,0,1-6.719-1.534,19.921,19.921,0,0,1-14.387.365,29,29,0,0,0-20.011.292,12.755,12.755,0,0,1-4.747.876A14.66,14.66,0,0,1,85.9,104.9l1.461,9.275h48.567l1.461-9.275A15.4,15.4,0,0,1,134.832,105.264Z" transform="translate(-47.631 -56.592)" fill="#e6aa55"/>
      <path id="Path_4633" data-name="Path 4633" d="M85.111,96.7a12.756,12.756,0,0,0,4.747-.876,29.443,29.443,0,0,1,20.011-.292,20.618,20.618,0,0,0,6.719,1.169,19.174,19.174,0,0,0,7.668-1.534,13.8,13.8,0,0,0,6.719,1.534,13.483,13.483,0,0,0,12.781-13.511,13.312,13.312,0,0,0-7.668-11.831c-.073-.146-.073-.292-.146-.438a33.109,33.109,0,0,0-3.8-.219,13.571,13.571,0,0,0-6.719,1.753l-2.337,1.315s12.343-.219,13.146,8.253c.949,10.225-5.77,9.567-5.77,9.567l2.7-5.112s-8.107,6.135-14.972,5.989-10.59-3.871-17.747-2.921l1.972-5.7S96.65,92.1,89.785,92.1c0,0-8.4,2.848-14.022-2.775a11.413,11.413,0,0,1-3.652-8.545,7.358,7.358,0,0,0-.219,1.826A13.249,13.249,0,0,0,85.111,96.7Z" transform="translate(-43.847 -48.027)" fill="#e6aa55" opacity="0.7"/>
      <path id="Path_4634" data-name="Path 4634" d="M134.832,105.264a13.03,13.03,0,0,1-6.719-1.534,19.921,19.921,0,0,1-14.387.365,29,29,0,0,0-20.011.292,12.755,12.755,0,0,1-4.747.876A14.66,14.66,0,0,1,85.9,104.9l.584,3.871a13.657,13.657,0,0,0,2.483.219,13.968,13.968,0,0,0,4.966-.949,27.993,27.993,0,0,1,19.792-.219,21.177,21.177,0,0,0,4.747,1.022v.73H106.714a1.022,1.022,0,1,0,0,2.045h9.421a2.353,2.353,0,0,1,2.337,2.337h17.455l.365-2.337.292-2.045.146-.876h0l.584-3.871A9.319,9.319,0,0,1,134.832,105.264Z" transform="translate(-47.631 -56.592)" fill="#e6aa55" opacity="0.7"/>
      <path id="Path_4635" data-name="Path 4635" d="M153.659,65.687A20.348,20.348,0,0,0,137.3,51.3l.146.219s10.225,4.236,10.225,13.657A26.837,26.837,0,0,1,153.659,65.687Z" transform="translate(-61.492 -42.796)" fill="#e6aa55" opacity="0.7"/>
      <path id="Path_4636" data-name="Path 4636" d="M144.447,77.4a14.355,14.355,0,0,0-7.814-12.562,21.206,21.206,0,0,0-36.516-7.888A18.265,18.265,0,0,1,85.29,63.23h-.219a14.636,14.636,0,0,0-14.68,13.657A14.11,14.11,0,0,0,74.335,87.55a14.8,14.8,0,0,0,6.427,3.944l1.461,9.421h50.32L134,91.421A14.527,14.527,0,0,0,144.447,77.4Zm-12.562,14.46-.365,2.264H102.526a1.022,1.022,0,1,0,0,2.045h28.7L130.79,98.8H83.976l-1.1-6.938h.073c.146,0,.365.073.511.073a14.09,14.09,0,0,0,2.483,0h.073a13.944,13.944,0,0,0,2.41-.438c.073,0,.146-.073.219-.073a4.223,4.223,0,0,0,1.022-.365,22.9,22.9,0,0,0,2.921-.949,27.44,27.44,0,0,1,16.432.657,21.2,21.2,0,0,0,7.084,1.169,22.953,22.953,0,0,0,7.668-1.388,14.875,14.875,0,0,0,1.607.657,14.415,14.415,0,0,0,4.309.73h.876A3.76,3.76,0,0,0,131.885,91.859Zm1.242-2.264-.219.073c-.365.073-.73.146-1.169.219a5.9,5.9,0,0,1-1.169.073h0a12.4,12.4,0,0,1-4.017-.511,16.5,16.5,0,0,0,6.865-7.6,1.017,1.017,0,1,0-1.9-.73A13.544,13.544,0,0,1,124,88.353h0l-.438.146a19.168,19.168,0,0,1-7.3,1.461,18.751,18.751,0,0,1-6.354-1.1c-.438-.146-.8-.292-1.242-.438a.658.658,0,0,0-.365-.073l-.876-.219c-.146-.073-.292-.073-.438-.146-.292-.073-.511-.146-.8-.219-.146,0-.365-.073-.511-.073-.219-.073-.511-.073-.73-.146-.146,0-.365-.073-.511-.073-.219,0-.511-.073-.73-.073s-.365-.073-.584-.073-.511-.073-.73-.073H101.8a2.484,2.484,0,0,1-.73-.073h-2.7a1.608,1.608,0,0,0-.584.073,13.417,13.417,0,0,0,5.039-8.18,1.033,1.033,0,1,0-2.045-.292c0,.073-.876,6.208-8.764,9.348-.146,0-.219.073-.365.073a4.116,4.116,0,0,0-.876.292c-.146.073-.292.073-.438.146l-1.315.438a4.725,4.725,0,0,1-.949.292c-.073,0-.146.073-.219.073-.292.073-.511.146-.8.219a.268.268,0,0,0-.219.073c-.292.073-.584.073-.876.146H85.8c-.365,0-.73.073-1.1.073h0a5.527,5.527,0,0,1-1.1-.073c-.219,0-.438-.073-.657-.073a.439.439,0,0,1-.292-.073c-.292-.073-.511-.073-.8-.146h-.146a12.556,12.556,0,0,1-5.989-3.506,12.283,12.283,0,0,1,9.129-20.741h.219A20.553,20.553,0,0,0,101.5,58.337a19.195,19.195,0,0,1,32.573,5.77A14.785,14.785,0,0,0,121.734,67.1a1.035,1.035,0,0,0-.073,1.461,1.162,1.162,0,0,0,.73.365.793.793,0,0,0,.657-.292A11.422,11.422,0,0,1,142.183,77.4,12.128,12.128,0,0,1,133.127,89.6Z" transform="translate(-43.443 -42.31)"/>
      <path id="Path_4637" data-name="Path 4637" d="M92.546,53.8a11.311,11.311,0,0,1-9.713,4.82c-.876,0-1.753.146-2.556.219a13.6,13.6,0,0,0-2.483.511,18.984,18.984,0,0,0-4.747,1.9,22.729,22.729,0,0,0-7.668,6.792,24.585,24.585,0,0,0-4.09,9.713,18.428,18.428,0,0,1,2.629-10.663,20.5,20.5,0,0,1,3.506-4.455,23.244,23.244,0,0,1,4.6-3.359,21.3,21.3,0,0,1,10.955-2.41A12.26,12.26,0,0,0,92.546,53.8Z" transform="translate(-40.985 -43.47)" fill="#fff"/>
      <path id="Path_4638" data-name="Path 4638" d="M165.278,74.671a22.525,22.525,0,0,0-3.067-9.2,20.882,20.882,0,0,0-6.5-6.865l-.219-.146-.146-.292a30.369,30.369,0,0,0-5.331-8.18,29.071,29.071,0,0,0-17.236-8.91,31.178,31.178,0,0,0-10.079.219,23.737,23.737,0,0,1,4.966-1.315c.876-.146,1.753-.219,2.556-.292.876,0,1.753-.073,2.629,0A25.729,25.729,0,0,1,143,42.244a29.829,29.829,0,0,1,8.545,6.208,28,28,0,0,1,5.55,8.983L156.733,57a20.67,20.67,0,0,1,6.5,7.888A18.245,18.245,0,0,1,165.278,74.671Z" transform="translate(-57.555 -39.656)" fill="#fff"/>
      <path id="Path_4639" data-name="Path 4639" d="M100.056,143.925c2.191,0,3.871-1.242,3.871-2.775V140.2H91v.949c0,1.534,1.753,2.775,3.871,2.775Z" transform="translate(-49.006 -66.77)" fill="#fff"/>
      <path id="Path_4640" data-name="Path 4640" d="M142.929,143.925c2.191,0,3.871-1.242,3.871-2.775V140.2h-13v.949c0,1.534,1.753,2.775,3.871,2.775Z" transform="translate(-60.548 -66.77)" fill="#fff"/>
      <path id="Path_4641" data-name="Path 4641" d="M123.646,127.4H102.612c-5.989,0-10.955,3.14-11.612,7.157h44.258C134.6,130.54,129.634,127.4,123.646,127.4Z" transform="translate(-49.006 -63.318)" fill="#fff"/>
      <text id="Chef_On_Dial...." data-name="Chef On Dial...." transform="translate(0 92.401)" fill="#fff" font-size="18" font-family="SegoeUI, Segoe UI"><tspan x="0" y="0">Chef On Dial....</tspan></text>
      <text id="Call_chef_to_your_doorstep" data-name="Call chef to your doorstep" transform="translate(39 108.391)" fill="#fff" font-size="7" font-family="SegoeUI, Segoe UI"><tspan x="0" y="0">Call chef to your doorstep</tspan></text>
    </g>
  </g>
</svg>
