<svg xmlns="http://www.w3.org/2000/svg" width="24.219" height="24.214" viewBox="0 0 24.219 24.214">
  <path id="Icon_awesome-instagram" data-name="Icon awesome-instagram" d="M12.107,8.137a6.208,6.208,0,1,0,6.208,6.208A6.2,6.2,0,0,0,12.107,8.137Zm0,10.244a4.036,4.036,0,1,1,4.036-4.036,4.043,4.043,0,0,1-4.036,4.036Zm7.91-10.5a1.448,1.448,0,1,1-1.448-1.448A1.445,1.445,0,0,1,20.017,7.883Zm4.112,1.47a7.166,7.166,0,0,0-1.956-5.074A7.213,7.213,0,0,0,17.1,2.323c-2-.113-7.991-.113-9.99,0A7.2,7.2,0,0,0,2.036,4.273,7.189,7.189,0,0,0,.08,9.347c-.113,2-.113,7.991,0,9.99a7.166,7.166,0,0,0,1.956,5.074,7.222,7.222,0,0,0,5.074,1.956c2,.113,7.991.113,9.99,0a7.166,7.166,0,0,0,5.074-1.956,7.213,7.213,0,0,0,1.956-5.074c.113-2,.113-7.986,0-9.985Zm-2.583,12.13a4.086,4.086,0,0,1-2.3,2.3c-1.594.632-5.376.486-7.137.486s-5.549.14-7.137-.486a4.086,4.086,0,0,1-2.3-2.3c-.632-1.594-.486-5.376-.486-7.137s-.14-5.549.486-7.137a4.086,4.086,0,0,1,2.3-2.3c1.594-.632,5.376-.486,7.137-.486s5.549-.14,7.137.486a4.086,4.086,0,0,1,2.3,2.3c.632,1.594.486,5.376.486,7.137S22.178,19.894,21.546,21.482Z" transform="translate(0.005 -2.238)" fill="#fff"/>
</svg>
