<svg xmlns="http://www.w3.org/2000/svg" width="22.989" height="22.989" viewBox="0 0 22.989 22.989">
  <path id="Icon_awesome-phone-alt" data-name="Icon awesome-phone-alt" d="M22.334,16.246,17.3,14.09a1.078,1.078,0,0,0-1.257.31L13.82,17.121A16.643,16.643,0,0,1,5.864,9.165L8.585,6.938a1.075,1.075,0,0,0,.31-1.257L6.74.652A1.085,1.085,0,0,0,5.5.028L.835,1.105A1.078,1.078,0,0,0,0,2.155,20.832,20.832,0,0,0,20.834,22.99a1.078,1.078,0,0,0,1.051-.835l1.078-4.67A1.091,1.091,0,0,0,22.334,16.246Z" transform="translate(0 0)" fill="#fff"/>
</svg>
