<svg xmlns="http://www.w3.org/2000/svg" width="26.635" height="21.632" viewBox="0 0 26.635 21.632">
  <path id="Icon_awesome-twitter" data-name="Icon awesome-twitter" d="M23.9,8.772c.017.237.017.473.017.71A15.425,15.425,0,0,1,8.382,25.013,15.426,15.426,0,0,1,0,22.562a11.292,11.292,0,0,0,1.318.068A10.932,10.932,0,0,0,8.1,20.3a5.468,5.468,0,0,1-5.1-3.786,6.884,6.884,0,0,0,1.031.084,5.773,5.773,0,0,0,1.437-.186,5.459,5.459,0,0,1-4.377-5.357v-.068a5.5,5.5,0,0,0,2.467.693,5.467,5.467,0,0,1-1.69-7.3A15.516,15.516,0,0,0,13.114,10.09a6.162,6.162,0,0,1-.135-1.251A5.464,5.464,0,0,1,22.426,5.1a10.747,10.747,0,0,0,3.465-1.318,5.444,5.444,0,0,1-2.4,3.008,10.943,10.943,0,0,0,3.143-.845A11.734,11.734,0,0,1,23.9,8.772Z" transform="translate(0 -3.381)" fill="#fff"/>
</svg>
