<svg xmlns="http://www.w3.org/2000/svg" xmlns:xlink="http://www.w3.org/1999/xlink" width="87.517" height="68.072" viewBox="0 0 87.517 68.072">
  <defs>
    <linearGradient id="linear-gradient" x1="0.5" x2="0.5" y2="1" gradientUnits="objectBoundingBox">
      <stop offset="0" stop-color="#fad880"/>
      <stop offset="0.433" stop-color="#e8c15b"/>
      <stop offset="1" stop-color="#7d6c40"/>
    </linearGradient>
  </defs>
  <g id="Group_3664" data-name="Group 3664" transform="translate(-853.242 -3122.25)">
    <path id="Path_3858" data-name="Path 3858" d="M1072.635,939.1c.308.5,1.568.234,2.385-.51.839-.765,5.566-3.681,13.073-8.057,9.858-5.748,14.744-9.763,23.047-18.953,4.662-5.158,5.746-6.613,7.149-9.593,2.007-4.27,2.921-9.156,3.266-17.507.207-4.9.187-5.136-.473-5.794-1.226-1.228-2.523-.914-8.44,2.049-3,1.5-6.931,3.357-8.727,4.117-11.335,4.818-17.577,9.21-23.992,16.9a44.643,44.643,0,0,0-6.974,11.34c-2.1,4.643-2.242,5.625-2.067,13.636.133,5.8.272,7.329.877,9.518C1072.152,937.672,1072.55,938.959,1072.635,939.1Zm12.5-39.512a44.55,44.55,0,0,1,14.208-10.485c3.1-1.509,18.792-7.946,18.925-7.76.24.313-.562,10.316-.994,12.414-1.327,6.5-2.539,8.652-9.3,16.551-7.681,8.965-11.792,12.434-22.659,19.09-2.869,1.762-5.833,3.622-6.586,4.133a10.6,10.6,0,0,1-1.519.929c-.219,0,3.951-8.865,5.242-11.143,1.917-3.4,5.227-5.578,13.252-8.727a34.649,34.649,0,0,0,4.972-2.279c.807-.638.813-.664.181-1a3.373,3.373,0,0,0-1.344-.351,54.67,54.67,0,0,0-8.839,2.3c-1.068.42-1.561.505-1.408.234a65.441,65.441,0,0,1,5.365-7.4c1.493-1.54,3.2-2.125,7.744-2.644,4.4-.506,5.711-.76,5.753-1.117.058-.557-2.146-.876-5.38-.775l-3.209.1,4.069-4.105c3.643-3.686,4.578-4.871,3.819-4.867-.611.006-2.916,1.706-5.96,4.4-1.826,1.614-3.744,3.207-4.265,3.542l-.95.6v-.8c0-1.052-.643-2.858-1.016-2.858-.159,0-.291.245-.291.543a11.612,11.612,0,0,1-.983,2.612,17.069,17.069,0,0,0-.978,2.327,10,10,0,0,1-1.652,1.875,40.928,40.928,0,0,0-2.99,3.357c-1.5,1.939-1.683,1.859-1.986-.818-.229-2.067-1.391-4.867-2.269-5.482C1083.46,901.554,1083.5,901.469,1085.139,899.584Zm-10.581,18.4a53.362,53.362,0,0,1,5.407-11.914,16.983,16.983,0,0,1,1.928-2.624c.335,0,1.26,3.284,1.61,5.711.6,4.163.563,4.333-1.9,8.052a44.36,44.36,0,0,0-5.577,11.042c-.765,2.06-1.423,3.787-1.467,3.835C1073.846,932.924,1073.846,920.724,1074.557,917.988Z" transform="translate(-180.913 2244.242)" fill="url(#linear-gradient)"/>
    <path id="Path_3883" data-name="Path 3883" d="M987.776,888.7a8.483,8.483,0,0,0-5.91,5.551c-1.331,4.965,1.859,13.222,7.468,19.275,3.7,4,9.721,9.1,11.64,9.872,1.833.729,2.25.679,3.768-.51,4.814-3.792,4.6-14.394-.478-22.851C1000.035,892.987,992.506,887.813,987.776,888.7Zm10.994,27.581c-9.762-6.531-16.261-17.869-12.769-22.289,1.708-2.161,3.843-1.919,7.629.862,5.961,4.4,9.906,12.611,9.871,20.583C1003.486,919.07,1003.057,919.145,998.77,916.282Z" transform="translate(-128.323 2266.443)" fill="url(#linear-gradient)"/>
  </g>
</svg>
