<svg xmlns="http://www.w3.org/2000/svg" width="88" height="88" viewBox="0 0 88 88">
  <path id="Icon_awesome-user-circle" data-name="Icon awesome-user-circle" d="M44,.563a44,44,0,1,0,44,44A43.992,43.992,0,0,0,44,.563Zm0,17.032A15.613,15.613,0,1,1,28.387,33.208,15.613,15.613,0,0,1,44,17.595Zm0,61.032a34,34,0,0,1-25.992-12.1,19.781,19.781,0,0,1,17.476-10.61,4.341,4.341,0,0,1,1.26.2A23.491,23.491,0,0,0,44,57.337a23.4,23.4,0,0,0,7.256-1.224,4.341,4.341,0,0,1,1.26-.2,19.781,19.781,0,0,1,17.476,10.61A34,34,0,0,1,44,78.627Z" transform="translate(0 -0.563)" fill="#c35a06"/>
</svg>
