<svg xmlns="http://www.w3.org/2000/svg" width="84.149" height="82.633" viewBox="0 0 84.149 82.633">
  <g id="Group_3678" data-name="Group 3678" transform="translate(242.714 -190.314) rotate(30)">
    <g id="Group_4" data-name="Group 4" transform="translate(-92.561 276.756)">
      <path id="Path_4" data-name="Path 4" d="M370.578,159.932q2.132,2.563,4.207,5.32a18.079,18.079,0,0,1,1.933,6.384v.266a13.629,13.629,0,0,0-7.391,3.99q-.448,1.469.8,1.862.686-.406,1.365-.8a12.462,12.462,0,0,1,9.551,4.256,8.4,8.4,0,0,1,1.592,6.384,10.717,10.717,0,0,1-1.819,7.315,9.2,9.2,0,0,1-2.5,1.463,33.348,33.348,0,0,0,2.274-4.788q-.336-1.455-1.592-.931-.614.975-1.137,1.995a4.042,4.042,0,0,0-1.365.4,18.059,18.059,0,0,1-13.872,3.99q-4.089-1.326-8.187-2.66-2.21-.344-4.321-.665.507-1.454,1.023-2.926a5.991,5.991,0,0,0,.227-2.66.93.93,0,0,0-1.251-.4,14.376,14.376,0,0,0-1.137,3.059,12.872,12.872,0,0,0-3.411,3.325,19.358,19.358,0,0,1-11.257,3.591q-7.7.189-11.257-7.714-1.2-11.835,8.414-15.826a28.645,28.645,0,0,0,12.735-2.527q.222.121.455.266a9.328,9.328,0,0,1,1.365-1.064q.365.728-.455.931a1.045,1.045,0,0,1,.455.4,3.059,3.059,0,0,1-1.365.133,2.4,2.4,0,0,0-.682.8,5.313,5.313,0,0,1,.227,1.729,8.549,8.549,0,0,0,1.365-.532,32.43,32.43,0,0,0,4.548-2.926,54.808,54.808,0,0,1,6.822-7.049,25.837,25.837,0,0,1,5.23-2.527h2.729V160.73q-3.072.066-6.14-.133a1.309,1.309,0,0,1-.227-.931A16.3,16.3,0,0,1,370.578,159.932Z" transform="translate(-322.917 -158.64)" fill="#fff" fill-rule="evenodd"/>
    </g>
    <g id="Group_6" data-name="Group 6" transform="translate(-94.632 274.393)">
      <path id="Path_6" data-name="Path 6" d="M380.6,190.916a1.115,1.115,0,0,0-.91-1.33.471.471,0,0,0,0-.8,10.67,10.67,0,0,0,1.364-3.724,3.073,3.073,0,0,0,.569-1.6,16.184,16.184,0,0,0-1.592-10.108,1.677,1.677,0,0,0-.569-.532q-3.835-6.293-10.461-4.921a9.694,9.694,0,0,0-4.548,2.527q-.678.391-1.364.8-1.244-.393-.8-1.862a13.629,13.629,0,0,1,7.391-3.99,16.371,16.371,0,0,1,3.639.266l.682-.266a5.1,5.1,0,0,0-.682-1.33,19.442,19.442,0,0,0-9.779-10.64,16.3,16.3,0,0,0-12.053-.266,17.419,17.419,0,0,0-6.595,4.389,48.779,48.779,0,0,1-3.639,4.522q-2.011,1.639-4.093,3.059a28.646,28.646,0,0,1-12.735,2.527q-9.611,3.992-8.414,15.826a14.446,14.446,0,0,0,4.776,8.512,1.5,1.5,0,0,0-1.364.532l.91.266a3,3,0,0,0-.682,1.064q-7.1-6.347-5.571-16.757,2.581-9.934,11.257-12.1a18.85,18.85,0,0,0,14.1-4.256,53.578,53.578,0,0,1,7.277-7.714q11.607-7.121,22.513,1.33a25.863,25.863,0,0,1,7.391,12.368q8.683,6.246,6.822,18.087A18.127,18.127,0,0,1,380.6,190.916Z" transform="translate(-313.811 -149.757)" fill="#0a0707" fill-rule="evenodd"/>
    </g>
    <g id="Group_7" data-name="Group 7" transform="translate(-71.507 277.783)">
      <path id="Path_7" data-name="Path 7" d="M430.054,162.5a1.31,1.31,0,0,0,.228.931q3.068.2,6.14.133v1.064h-2.729q1-.277,2.047-.665a11.061,11.061,0,0,0-9.324,2.128,14.789,14.789,0,0,1-2.047,1.6A34.9,34.9,0,0,1,416.3,176.6l-.114.266a.988.988,0,0,0,.91.266,8.562,8.562,0,0,1-1.364.532,5.312,5.312,0,0,0-.227-1.729,2.4,2.4,0,0,1,.682-.8,3.059,3.059,0,0,0,1.365-.133,1.045,1.045,0,0,0-.455-.4q.82-.2.455-.931a9.319,9.319,0,0,0-1.365,1.064q-.233-.145-.455-.266,2.082-1.42,4.093-3.059a48.775,48.775,0,0,0,3.639-4.522A17.418,17.418,0,0,1,430.054,162.5Z" transform="translate(-415.5 -162.5)" fill="#fff" fill-rule="evenodd"/>
    </g>
    <g id="Group_8" data-name="Group 8" transform="translate(-70.825 278.973)">
      <path id="Path_8" data-name="Path 8" d="M436.01,167.912a25.845,25.845,0,0,0-5.23,2.527,54.8,54.8,0,0,0-6.822,7.049,32.435,32.435,0,0,1-4.548,2.926.988.988,0,0,1-.91-.266l.114-.266a34.9,34.9,0,0,0,8.073-8.911,14.792,14.792,0,0,0,2.047-1.6,11.061,11.061,0,0,1,9.324-2.128Q437.007,167.635,436.01,167.912Z" transform="translate(-418.5 -166.974)" fill="#e5a954" fill-rule="evenodd"/>
    </g>
    <g id="Group_9" data-name="Group 9" transform="translate(-44.901 278.049)">
      <path id="Path_9" data-name="Path 9" d="M532.5,163.5a19.44,19.44,0,0,1,9.779,10.64,1.308,1.308,0,0,1-.227.931,21.985,21.985,0,0,1-3.411.133,18.076,18.076,0,0,0-1.933-6.384Q534.632,166.063,532.5,163.5Z" transform="translate(-532.5 -163.5)" fill="#fff" fill-rule="evenodd"/>
    </g>
    <g id="Group_10" data-name="Group 10" transform="translate(-38.761 288.688)">
      <path id="Path_10" data-name="Path 10" d="M563.139,203.5a5.1,5.1,0,0,1,.682,1.33l-.682.266a16.367,16.367,0,0,0-3.639-.266v-.266a21.986,21.986,0,0,0,3.411-.133A1.311,1.311,0,0,0,563.139,203.5Z" transform="translate(-559.5 -203.5)" fill="#fff" fill-rule="evenodd"/>
    </g>
    <g id="Group_11" data-name="Group 11" transform="translate(-90.615 293.991)">
      <path id="Path_11" data-name="Path 11" d="M338.076,223.454a14.089,14.089,0,0,1,2.729.133.994.994,0,0,1,.227.4q-6.576,2.448-9.324,9.841a8.076,8.076,0,0,1,.91-6.118A9.6,9.6,0,0,1,338.076,223.454Z" transform="translate(-331.475 -223.438)" fill="#e5a954" fill-rule="evenodd"/>
    </g>
    <g id="Group_12" data-name="Group 12" transform="translate(-43.991 292.299)">
      <path id="Path_12" data-name="Path 12" d="M551.509,222.243a.828.828,0,0,1-.227.665.981.981,0,0,0,.682.133,19.915,19.915,0,0,0,1.251,3.458,52.155,52.155,0,0,1-.114,7.98,10.668,10.668,0,0,1-1.365,3.724q-4.961,7.028-12.507,4.921a17.992,17.992,0,0,0,4.094-3.857,9.2,9.2,0,0,0,2.5-1.463,10.718,10.718,0,0,0,1.819-7.315,8.4,8.4,0,0,0-1.592-6.384,12.462,12.462,0,0,0-9.551-4.256,9.694,9.694,0,0,1,4.548-2.527Q547.674,215.949,551.509,222.243Z" transform="translate(-536.5 -217.076)" fill="#fff" fill-rule="evenodd"/>
    </g>
    <g id="Group_14" data-name="Group 14" transform="translate(-29.209 297.466)">
      <path id="Path_14" data-name="Path 14" d="M601.727,236.5a1.676,1.676,0,0,1,.569.532,16.186,16.186,0,0,1,1.592,10.107,3.073,3.073,0,0,1-.568,1.6,52.171,52.171,0,0,0,.114-7.98,19.916,19.916,0,0,1-1.251-3.458.982.982,0,0,1-.682-.133A.83.83,0,0,0,601.727,236.5Z" transform="translate(-601.5 -236.5)" fill="#fff" fill-rule="evenodd"/>
    </g>
    <g id="Group_15" data-name="Group 15" transform="translate(-18.541 301.987)">
      <path id="Path_15" data-name="Path 15" d="M648.661,253.5a5.813,5.813,0,0,1,0,3.192,1.457,1.457,0,0,1-.227-1.064A5.116,5.116,0,0,0,648.661,253.5Z" transform="translate(-648.413 -253.5)" fill="#b5b5b5" fill-rule="evenodd"/>
    </g>
    <g id="Group_16" data-name="Group 16" transform="translate(-89.018 305.742)">
      <path id="Path_16" data-name="Path 16" d="M362.151,273.7a22.64,22.64,0,0,1-2.956,3.857,35.528,35.528,0,0,1,13.19,2.926q8.949,1.916,15.8-4.921a13.528,13.528,0,0,0,1.706-2.926q.523-1.02,1.137-1.995,1.256-.524,1.592.931a33.362,33.362,0,0,1-2.274,4.788,17.991,17.991,0,0,1-4.094,3.857q7.546,2.107,12.508-4.921a.472.472,0,0,1,0,.8,1.115,1.115,0,0,1,.91,1.33,14.631,14.631,0,0,1-6.595,5.32q-.809,5.161-1.364,10.374H343.958q-.5-5.329-1.137-10.639a7.867,7.867,0,0,1-4.093-2.128,2.994,2.994,0,0,1,.682-1.064l-.91-.266a1.5,1.5,0,0,1,1.364-.532,4.889,4.889,0,0,0,1.819,1.064,10.026,10.026,0,0,0,7.732.931.777.777,0,0,0,.455-.4q7.594-1.447,11.143-9.31a14.369,14.369,0,0,1,1.137-3.059.93.93,0,0,1,1.25.4,5.989,5.989,0,0,1-.227,2.66Q362.658,272.247,362.151,273.7Z" transform="translate(-338.5 -267.615)" fill="#050202" fill-rule="evenodd"/>
    </g>
    <g id="Group_17" data-name="Group 17" transform="translate(-68.324 310.765)">
      <path id="Path_17" data-name="Path 17" d="M460.2,286.5a13.537,13.537,0,0,1-1.706,2.926q-6.856,6.837-15.8,4.921a35.535,35.535,0,0,0-13.19-2.926,22.624,22.624,0,0,0,2.956-3.857q2.111.321,4.321.665,4.1,1.334,8.187,2.66a18.059,18.059,0,0,0,13.872-3.99A4.041,4.041,0,0,1,460.2,286.5Z" transform="translate(-429.5 -286.5)" fill="#fff" fill-rule="evenodd"/>
    </g>
    <g id="Group_18" data-name="Group 18" transform="translate(-92.429 308.105)">
      <path id="Path_18" data-name="Path 18" d="M323.5,276.5q3.558,7.9,11.257,7.714a19.356,19.356,0,0,0,11.257-3.591,12.877,12.877,0,0,1,3.411-3.325q-3.549,7.862-11.143,9.31-1.472.182-2.956.266-2.558-.262-5.23-.8a4.888,4.888,0,0,1-1.819-1.064A14.448,14.448,0,0,1,323.5,276.5Z" transform="translate(-323.5 -276.5)" fill="#fff" fill-rule="evenodd"/>
    </g>
    <g id="Group_19" data-name="Group 19" transform="translate(-85.834 317.681)">
      <path id="Path_19" data-name="Path 19" d="M352.5,312.5q2.672.536,5.23.8,1.484-.083,2.956-.266a.777.777,0,0,1-.455.4A10.026,10.026,0,0,1,352.5,312.5Z" transform="translate(-352.5 -312.5)" fill="#fff" fill-rule="evenodd"/>
    </g>
    <g id="Group_20" data-name="Group 20" transform="translate(-82.447 318.236)">
      <path id="Path_20" data-name="Path 20" d="M409.715,317.489q0,.266.228.266a8.384,8.384,0,0,0,2.956.266l-.227,1.6H392.887a37.8,37.8,0,0,0-10.234-2.128,32.582,32.582,0,0,0-11.6,3.059,21.62,21.62,0,0,0-3.411.4,3.946,3.946,0,0,1-.227-1.862v-1.33h1.137q1.938-.259,3.866-.665a23.289,23.289,0,0,1,20.467-.266,17.312,17.312,0,0,0,12.735-.665A18.257,18.257,0,0,0,409.715,317.489Z" transform="translate(-367.392 -314.586)" fill="#fff" fill-rule="evenodd"/>
    </g>
    <g id="Group_21" data-name="Group 21" transform="translate(-40.125 321.138)">
      <path id="Path_21" data-name="Path 21" d="M553.5,325.5h3.639a.837.837,0,0,1-.227.8,5.091,5.091,0,0,0-3.184-.532Q553.5,325.766,553.5,325.5Z" transform="translate(-553.5 -325.5)" fill="#fff" fill-rule="evenodd"/>
    </g>
    <g id="Group_22" data-name="Group 22" transform="translate(-82.195 321.138)">
      <path id="Path_22" data-name="Path 22" d="M393.742,327.628v.266a56.311,56.311,0,0,0-7.732.266.517.517,0,0,0-.341.266,5.714,5.714,0,0,0-.114,1.6,2.772,2.772,0,0,0,.228,1.463l10.006.266a3.794,3.794,0,0,1,1.592,1.2H368.955q-.311-1.976-.455-3.99a21.633,21.633,0,0,1,3.411-.4,32.576,32.576,0,0,1,11.6-3.059A37.8,37.8,0,0,1,393.742,327.628Z" transform="translate(-368.5 -325.5)" fill="#fff" fill-rule="evenodd"/>
    </g>
    <g id="Group_23" data-name="Group 23" transform="translate(-82.674 321.111)">
      <path id="Path_23" data-name="Path 23" d="M367.784,325.69h-1.137v1.33a2.936,2.936,0,0,1-.227-1.6A1.913,1.913,0,0,1,367.784,325.69Z" transform="translate(-366.396 -325.396)" fill="#664b2c" fill-rule="evenodd"/>
    </g>
    <g id="Group_24" data-name="Group 24" transform="translate(-56.953 321.347)">
      <path id="Path_24" data-name="Path 24" d="M496.556,326.342a5.091,5.091,0,0,1,3.184.532v.8a.838.838,0,0,0-.227.8H479.5V328.2h19.785l.227-1.6A8.378,8.378,0,0,1,496.556,326.342Z" transform="translate(-479.5 -326.285)" fill="#fff" fill-rule="evenodd"/>
    </g>
    <g id="Group_25" data-name="Group 25" transform="translate(-64.685 322.734)">
      <path id="Path_25" data-name="Path 25" d="M473.471,331.5v1.064H445.5a56.35,56.35,0,0,1,7.732-.266h20.012A.837.837,0,0,1,473.471,331.5Z" transform="translate(-445.5 -331.5)" fill="#fff" fill-rule="evenodd"/>
    </g>
    <g id="Group_26" data-name="Group 26" transform="translate(-64.458 325.926)">
      <path id="Path_26" data-name="Path 26" d="M446.5,343.5h27.289a1.381,1.381,0,0,1-.227,1.064v-.8Q459.973,343.9,446.5,343.5Z" transform="translate(-446.5 -343.5)" fill="#fff" fill-rule="evenodd"/>
    </g>
    <g id="Group_27" data-name="Group 27" transform="translate(-65.157 325.66)">
      <path id="Path_27" data-name="Path 27" d="M443.442,342.5a1.182,1.182,0,0,0,.682.266q13.473.4,27.062.266v1.862a121.176,121.176,0,0,1-15.919.532,3.792,3.792,0,0,0-1.592-1.2l-10.006-.266A2.771,2.771,0,0,1,443.442,342.5Z" transform="translate(-443.425 -342.5)" fill="#fff" fill-rule="evenodd"/>
    </g>
    <g id="Group_28" data-name="Group 28" transform="translate(-81.741 328.054)">
      <path id="Path_28" data-name="Path 28" d="M414.845,351.5v.8q-22.23.133-44.345-.266h28.426A121.128,121.128,0,0,0,414.845,351.5Z" transform="translate(-370.5 -351.5)" fill="#fff" fill-rule="evenodd"/>
    </g>
  </g>
</svg>
