<svg id="Layer_2" data-name="Layer 2" xmlns="http://www.w3.org/2000/svg" width="17" height="17" viewBox="0 0 17 17">
  <g id="invisible_box" data-name="invisible box">
    <rect id="Rectangle_63" data-name="Rectangle 63" width="17" height="17" fill="none"/>
  </g>
  <g id="icons_Q2" data-name="icons Q2" transform="translate(0.717 1.007)">
    <path id="Path_85" data-name="Path 85" d="M9.808,3a.744.744,0,0,0-.637.39L7.152,7.5l-4.533.637a.744.744,0,0,0-.39,1.24l3.258,3.152L4.743,17.06a.708.708,0,0,0,.673.815L5.77,17.8l4.037-2.125L13.845,17.8l.354.071a.708.708,0,0,0,.673-.815l-.744-4.533,3.258-3.152A.744.744,0,0,0,17,8.135L12.464,7.5,10.445,3.39A.744.744,0,0,0,9.808,3Z" transform="translate(-2.025 -3)" fill="#ffc300"/>
  </g>
</svg>
