<svg xmlns="http://www.w3.org/2000/svg" width="62" height="46.205" viewBox="0 0 62 46.205">
  <g id="Group_3576" data-name="Group 3576" transform="translate(-33.5 -39.656)">
    <path id="Path_4629" data-name="Path 4629" d="M101.829,58.011A9.392,9.392,0,0,0,85.6,54.3a9.075,9.075,0,0,1-7.283,3.1h-.1a6.279,6.279,0,0,0-6.33,5.888,6.192,6.192,0,0,0,6.194,6.534,5.944,5.944,0,0,0,2.212-.408,13.72,13.72,0,0,1,9.325-.136,9.608,9.608,0,0,0,3.131.545,8.935,8.935,0,0,0,3.574-.715,6.429,6.429,0,0,0,3.131.715,6.283,6.283,0,0,0,5.956-6.3A6.165,6.165,0,0,0,101.829,58.011Z" transform="translate(-25.311 -7.484)" fill="#e6aa55"/>
    <g id="Group_178" data-name="Group 178" transform="translate(48.038 45.014)">
      <path id="Path_4630" data-name="Path 4630" d="M79.206,74.083A4.155,4.155,0,0,0,77.5,75a4.32,4.32,0,0,0-1.089,1.6,3.218,3.218,0,0,0-.1,1.872,9.6,9.6,0,0,1,.783-1.566,5.273,5.273,0,0,1,1.055-1.225,5.793,5.793,0,0,1,1.327-.919,7.111,7.111,0,0,1,1.634-.647A3.623,3.623,0,0,0,79.206,74.083Z" transform="translate(-76.217 -67.65)" fill="#fff"/>
      <path id="Path_4631" data-name="Path 4631" d="M110.777,55.671a6.785,6.785,0,0,0-2.655,1.566c-.17.17-.374.374-.545.579l-.476.545c-.306.34-.647.681-.987,1.021a20.707,20.707,0,0,1-2.314,1.77,7.326,7.326,0,0,0,2.757-1.157,8.126,8.126,0,0,0,1.191-.953c.17-.17.374-.374.51-.545a3.154,3.154,0,0,1,.476-.476,9.685,9.685,0,0,1,2.28-1.566,12.143,12.143,0,0,1,2.723-.885A5.186,5.186,0,0,0,110.777,55.671Z" transform="translate(-94.412 -55.399)" fill="#fff"/>
    </g>
    <path id="Path_4632" data-name="Path 4632" d="M108.7,103.766a6.072,6.072,0,0,1-3.131-.715,9.283,9.283,0,0,1-6.7.17,13.516,13.516,0,0,0-9.325.136,5.944,5.944,0,0,1-2.212.408,6.832,6.832,0,0,1-1.429-.17l.681,4.322h22.632l.681-4.322A7.174,7.174,0,0,1,108.7,103.766Z" transform="translate(-34.566 -41.429)" fill="#e6aa55"/>
    <path id="Path_4633" data-name="Path 4633" d="M78.04,82.816a5.944,5.944,0,0,0,2.212-.408,13.72,13.72,0,0,1,9.325-.136,9.608,9.608,0,0,0,3.131.545,8.935,8.935,0,0,0,3.574-.715,6.429,6.429,0,0,0,3.131.715,6.283,6.283,0,0,0,5.956-6.3,6.2,6.2,0,0,0-3.574-5.513c-.034-.068-.034-.136-.068-.2a15.428,15.428,0,0,0-1.77-.1,6.324,6.324,0,0,0-3.131.817l-1.089.613s5.752-.1,6.126,3.846c.442,4.765-2.689,4.458-2.689,4.458l1.259-2.382s-3.778,2.859-6.977,2.791-4.935-1.8-8.27-1.361l.919-2.655s-2.689,3.846-5.888,3.846c0,0-3.914,1.327-6.534-1.293a5.319,5.319,0,0,1-1.7-3.982,3.429,3.429,0,0,0-.1.851A6.174,6.174,0,0,0,78.04,82.816Z" transform="translate(-25.311 -20.479)" fill="#e6aa55" opacity="0.7"/>
    <path id="Path_4634" data-name="Path 4634" d="M108.7,103.766a6.072,6.072,0,0,1-3.131-.715,9.283,9.283,0,0,1-6.7.17,13.516,13.516,0,0,0-9.325.136,5.944,5.944,0,0,1-2.212.408,6.832,6.832,0,0,1-1.429-.17l.272,1.8a6.364,6.364,0,0,0,1.157.1,6.509,6.509,0,0,0,2.314-.442,13.045,13.045,0,0,1,9.223-.1,9.869,9.869,0,0,0,2.212.476v.34H95.6a.476.476,0,0,0,0,.953h4.39a1.1,1.1,0,0,1,1.089,1.089h8.134l.17-1.089.136-.953.068-.408h0l.272-1.8A4.343,4.343,0,0,1,108.7,103.766Z" transform="translate(-34.566 -41.429)" fill="#e6aa55" opacity="0.7"/>
    <path id="Path_4635" data-name="Path 4635" d="M144.924,58a9.482,9.482,0,0,0-7.624-6.7l.068.1s4.765,1.974,4.765,6.364A12.506,12.506,0,0,1,144.924,58Z" transform="translate(-68.473 -7.681)" fill="#e6aa55" opacity="0.7"/>
    <path id="Path_4636" data-name="Path 4636" d="M104.89,62.5a6.69,6.69,0,0,0-3.642-5.854,9.882,9.882,0,0,0-17.017-3.676A8.512,8.512,0,0,1,77.323,55.9h-.1a6.821,6.821,0,0,0-6.841,6.364,6.575,6.575,0,0,0,1.838,4.969,6.9,6.9,0,0,0,2.995,1.838l.681,4.39H99.342l.681-4.424A6.769,6.769,0,0,0,104.89,62.5Zm-5.854,6.739-.17,1.055H85.354a.476.476,0,1,0,0,.953H98.73l-.2,1.225H76.71l-.51-3.233h.034c.068,0,.17.034.238.034a6.567,6.567,0,0,0,1.157,0h.034a6.5,6.5,0,0,0,1.123-.2c.034,0,.068-.034.1-.034a1.968,1.968,0,0,0,.476-.17,10.674,10.674,0,0,0,1.361-.442,12.787,12.787,0,0,1,7.658.306,9.88,9.88,0,0,0,3.3.545,10.7,10.7,0,0,0,3.574-.647,6.931,6.931,0,0,0,.749.306,6.717,6.717,0,0,0,2.008.34h.408A1.752,1.752,0,0,0,99.036,69.239Zm.579-1.055-.1.034c-.17.034-.34.068-.545.1a2.751,2.751,0,0,1-.545.034h0a5.776,5.776,0,0,1-1.872-.238,7.691,7.691,0,0,0,3.2-3.539.474.474,0,0,0-.885-.34,6.311,6.311,0,0,1-3.505,3.369h0l-.2.068a8.932,8.932,0,0,1-3.4.681,8.738,8.738,0,0,1-2.961-.511c-.2-.068-.374-.136-.579-.2a.307.307,0,0,0-.17-.034l-.408-.1c-.068-.034-.136-.034-.2-.068-.136-.034-.238-.068-.374-.1-.068,0-.17-.034-.238-.034-.1-.034-.238-.034-.34-.068-.068,0-.17-.034-.238-.034-.1,0-.238-.034-.34-.034s-.17-.034-.272-.034-.238-.034-.34-.034h-.272a1.158,1.158,0,0,1-.34-.034H83.415a.749.749,0,0,0-.272.034,6.252,6.252,0,0,0,2.348-3.812.481.481,0,1,0-.953-.136c0,.034-.408,2.893-4.084,4.356-.068,0-.1.034-.17.034a1.918,1.918,0,0,0-.408.136c-.068.034-.136.034-.2.068l-.613.2a2.2,2.2,0,0,1-.442.136c-.034,0-.068.034-.1.034-.136.034-.238.068-.374.1a.125.125,0,0,0-.1.034c-.136.034-.272.034-.408.068h-.068c-.17,0-.34.034-.51.034h0a2.576,2.576,0,0,1-.511-.034c-.1,0-.2-.034-.306-.034a.2.2,0,0,1-.136-.034c-.136-.034-.238-.034-.374-.068h-.068a5.851,5.851,0,0,1-2.791-1.634,5.724,5.724,0,0,1,4.254-9.666h.1a9.578,9.578,0,0,0,7.658-3.267,8.945,8.945,0,0,1,15.179,2.689,6.89,6.89,0,0,0-5.752,1.4.483.483,0,0,0-.034.681.542.542,0,0,0,.34.17.37.37,0,0,0,.306-.136,5.323,5.323,0,0,1,8.917,4.084A5.652,5.652,0,0,1,99.614,68.184Z" transform="translate(-24.321 -6.494)"/>
    <path id="Path_4637" data-name="Path 4637" d="M75.837,53.8a5.271,5.271,0,0,1-4.526,2.246c-.408,0-.817.068-1.191.1a6.34,6.34,0,0,0-1.157.238,8.847,8.847,0,0,0-2.212.885,10.592,10.592,0,0,0-3.574,3.165,11.457,11.457,0,0,0-1.906,4.526A8.588,8.588,0,0,1,62.5,59.994a9.553,9.553,0,0,1,1.634-2.076,10.832,10.832,0,0,1,2.144-1.566,9.926,9.926,0,0,1,5.105-1.123A5.713,5.713,0,0,0,75.837,53.8Z" transform="translate(-18.309 -9.331)" fill="#fff"/>
    <path id="Path_4638" data-name="Path 4638" d="M142.542,55.973a10.5,10.5,0,0,0-1.429-4.288,9.731,9.731,0,0,0-3.029-3.2l-.1-.068-.068-.136a14.152,14.152,0,0,0-2.484-3.812,13.547,13.547,0,0,0-8.032-4.152,14.529,14.529,0,0,0-4.7.1,11.062,11.062,0,0,1,2.314-.613c.408-.068.817-.1,1.191-.136.408,0,.817-.034,1.225,0a11.99,11.99,0,0,1,4.731,1.191,13.9,13.9,0,0,1,3.982,2.893,13.046,13.046,0,0,1,2.587,4.186l-.17-.2a9.632,9.632,0,0,1,3.029,3.676A8.5,8.5,0,0,1,142.542,55.973Z" transform="translate(-58.842)" fill="#fff"/>
    <path id="Path_4639" data-name="Path 4639" d="M95.22,141.936c1.021,0,1.8-.579,1.8-1.293V140.2H91v.442c0,.715.817,1.293,1.8,1.293Z" transform="translate(-37.931 -66.326)" fill="#fff"/>
    <path id="Path_4640" data-name="Path 4640" d="M138.054,141.936c1.021,0,1.8-.579,1.8-1.293V140.2H133.8v.442c0,.715.817,1.293,1.8,1.293Z" transform="translate(-66.164 -66.326)" fill="#fff"/>
    <path id="Path_4641" data-name="Path 4641" d="M106.213,127.4h-9.8c-2.791,0-5.105,1.463-5.411,3.335h20.624C111.318,128.863,109,127.4,106.213,127.4Z" transform="translate(-37.931 -57.882)" fill="#fff"/>
    <text id="Chef_On_Dial...." data-name="Chef On Dial...." transform="translate(33.5 83.861)" fill="#fff" font-size="9" font-family="Helvetica"><tspan x="0" y="0">Chef On Dial....</tspan></text>
  </g>
</svg>
