<svg xmlns="http://www.w3.org/2000/svg" xmlns:xlink="http://www.w3.org/1999/xlink" width="67.84" height="64.239" viewBox="0 0 67.84 64.239">
  <defs>
    <linearGradient id="linear-gradient" x1="0.5" x2="0.5" y2="1" gradientUnits="objectBoundingBox">
      <stop offset="0" stop-color="#fad880"/>
      <stop offset="0.433" stop-color="#e8c15b"/>
      <stop offset="1" stop-color="#7d6c40"/>
    </linearGradient>
  </defs>
  <g id="Group_3663" data-name="Group 3663" transform="translate(-762.962 -3687.748)">
    <path id="Path_6747" data-name="Path 6747" d="M1.266,42.787c.216.353,1.1.164,1.67-.357.588-.535,3.9-2.578,9.156-5.643,6.9-4.026,10.327-6.838,16.142-13.275,3.266-3.612,4.025-4.632,5.008-6.719,1.406-2.99,2.046-6.413,2.288-12.262.145-3.433.131-3.6-.331-4.058-.859-.86-1.767-.64-5.912,1.435-2.1,1.053-4.854,2.352-6.112,2.884-7.939,3.374-12.311,6.451-16.8,11.837a31.27,31.27,0,0,0-4.885,7.943C.016,27.824-.085,28.513.038,34.123c.093,4.062.19,5.134.614,6.667C.928,41.79,1.206,42.691,1.266,42.787Zm8.758-27.675a31.2,31.2,0,0,1,9.952-7.344C22.144,6.711,33.138,2.2,33.231,2.333a68.057,68.057,0,0,1-.7,8.695c-.93,4.553-1.778,6.06-6.517,11.593-5.38,6.279-8.259,8.709-15.871,13.371-2.01,1.234-4.086,2.537-4.613,2.894a7.419,7.419,0,0,1-1.064.65c-.153,0,2.768-6.209,3.672-7.8,1.343-2.381,3.661-3.907,9.282-6.112a24.268,24.268,0,0,0,3.482-1.6c.566-.447.57-.465.127-.7a2.363,2.363,0,0,0-.941-.246,38.291,38.291,0,0,0-6.191,1.61c-.748.294-1.093.354-.986.164a45.838,45.838,0,0,1,3.757-5.182c1.046-1.079,2.24-1.489,5.424-1.852,3.085-.354,4-.532,4.03-.782.041-.391-1.5-.614-3.769-.543l-2.248.07,2.85-2.875c2.552-2.582,3.207-3.412,2.675-3.409-.428,0-2.042,1.195-4.175,3.085-1.279,1.13-2.622,2.247-2.987,2.481l-.666.421v-.558c0-.737-.45-2-.711-2-.111,0-.2.172-.2.38a8.131,8.131,0,0,1-.689,1.83,11.956,11.956,0,0,0-.685,1.63,7.006,7.006,0,0,1-1.157,1.313,28.665,28.665,0,0,0-2.094,2.352c-1.052,1.358-1.179,1.3-1.391-.573-.16-1.448-.974-3.409-1.589-3.84C8.848,16.492,8.874,16.433,10.024,15.112ZM2.612,28A37.376,37.376,0,0,1,6.4,19.658,11.894,11.894,0,0,1,7.75,17.82c.235,0,.882,2.3,1.128,4,.42,2.916.394,3.035-1.332,5.64A31.072,31.072,0,0,0,3.64,35.195c-.536,1.443-1,2.652-1.027,2.686C2.114,38.464,2.114,29.919,2.612,28Z" transform="matrix(0.391, 0.921, -0.921, 0.391, 816.887, 3702.417)" fill="url(#linear-gradient)"/>
    <path id="Path_6748" data-name="Path 6748" d="M4.35.069A5.942,5.942,0,0,0,.211,3.958c-.932,3.478,1.3,9.261,5.231,13.5,2.593,2.8,6.809,6.375,8.153,6.914,1.284.511,1.576.476,2.639-.357,3.372-2.656,3.219-10.082-.335-16.005C12.937,3.072,7.663-.552,4.35.069Zm7.7,19.318C5.213,14.813.661,6.872,3.107,3.776c1.2-1.513,2.692-1.344,5.344.6A18.4,18.4,0,0,1,15.364,18.8C15.354,21.341,15.054,21.394,12.051,19.388Z" transform="matrix(0.391, 0.921, -0.921, 0.391, 785.707, 3687.748)" fill="url(#linear-gradient)"/>
  </g>
</svg>
