<svg xmlns="http://www.w3.org/2000/svg" width="34" height="34" viewBox="0 0 34 34">
  <g id="Group_7539" data-name="Group 7539" transform="translate(-315 -5164)">
    <g id="Group_7534" data-name="Group 7534" transform="translate(36 39)">
      <g id="Ellipse_272" data-name="Ellipse 272" transform="translate(279 5125)" fill="#fff" stroke="#fff" stroke-width="1">
        <circle cx="17" cy="17" r="17" stroke="none"/>
        <circle cx="17" cy="17" r="16.5" fill="none"/>
      </g>
    </g>
    <g id="Group_7535" data-name="Group 7535" transform="translate(127.285 2245.775)">
      <g id="Group_2612" data-name="Group 2612" transform="translate(191.27 2923.369)">
        <path id="Path_4629" data-name="Path 4629" d="M91.628,55.624a6.194,6.194,0,0,0-10.706-2.446,5.985,5.985,0,0,1-4.8,2.042h-.067A4.141,4.141,0,0,0,71.877,59.1a4.083,4.083,0,0,0,4.085,4.309,3.92,3.92,0,0,0,1.459-.269,9.048,9.048,0,0,1,6.15-.09,6.337,6.337,0,0,0,2.065.359,5.893,5.893,0,0,0,2.357-.471,4.24,4.24,0,0,0,2.065.471,4.144,4.144,0,0,0,3.928-4.152A4.065,4.065,0,0,0,91.628,55.624Z" transform="translate(-69.487 -48.454)" fill="#e6aa55"/>
        <g id="Group_178" data-name="Group 178" transform="translate(3.358 3.534)">
          <path id="Path_4630" data-name="Path 4630" d="M78.188,74.045a2.74,2.74,0,0,0-1.122.606,2.849,2.849,0,0,0-.718,1.055,2.122,2.122,0,0,0-.067,1.234,6.329,6.329,0,0,1,.516-1.032,3.477,3.477,0,0,1,.7-.808,3.821,3.821,0,0,1,.875-.606,4.689,4.689,0,0,1,1.077-.426A2.39,2.39,0,0,0,78.188,74.045Z" transform="translate(-76.217 -69.803)" fill="#fff"/>
          <path id="Path_4631" data-name="Path 4631" d="M108.4,55.579a4.475,4.475,0,0,0-1.751,1.032c-.112.112-.247.247-.359.382l-.314.359c-.2.224-.426.449-.651.673a13.657,13.657,0,0,1-1.526,1.167,4.831,4.831,0,0,0,1.818-.763,5.358,5.358,0,0,0,.786-.628c.112-.112.247-.247.337-.359a2.08,2.08,0,0,1,.314-.314,6.387,6.387,0,0,1,1.5-1.032,8.008,8.008,0,0,1,1.8-.584A3.42,3.42,0,0,0,108.4,55.579Z" transform="translate(-97.609 -55.399)" fill="#fff"/>
        </g>
        <path id="Path_4632" data-name="Path 4632" d="M100.938,103.321a4,4,0,0,1-2.065-.471,6.122,6.122,0,0,1-4.422.112,8.914,8.914,0,0,0-6.15.09,3.92,3.92,0,0,1-1.459.269,4.506,4.506,0,0,1-.943-.112l.449,2.85h14.926l.449-2.85A4.733,4.733,0,0,1,100.938,103.321Z" transform="translate(-80.368 -88.363)" fill="#e6aa55"/>
        <path id="Path_4633" data-name="Path 4633" d="M75.939,78.69a3.92,3.92,0,0,0,1.459-.269,9.048,9.048,0,0,1,6.15-.09,6.337,6.337,0,0,0,2.065.359,5.893,5.893,0,0,0,2.357-.471,4.24,4.24,0,0,0,2.065.471,4.144,4.144,0,0,0,3.928-4.152A4.091,4.091,0,0,0,91.605,70.9c-.022-.045-.022-.09-.045-.135a10.174,10.174,0,0,0-1.167-.067,4.171,4.171,0,0,0-2.065.539l-.718.4s3.793-.067,4.04,2.536c.292,3.142-1.773,2.94-1.773,2.94l.83-1.571s-2.491,1.885-4.6,1.84-3.254-1.19-5.454-.9l.606-1.751s-1.773,2.536-3.883,2.536a4.482,4.482,0,0,1-4.309-.853A3.508,3.508,0,0,1,71.944,73.8a2.261,2.261,0,0,0-.067.561A4.072,4.072,0,0,0,75.939,78.69Z" transform="translate(-69.487 -63.732)" fill="#e6aa55" opacity="0.7"/>
        <path id="Path_4634" data-name="Path 4634" d="M100.938,103.321a4,4,0,0,1-2.065-.471,6.122,6.122,0,0,1-4.422.112,8.914,8.914,0,0,0-6.15.09,3.92,3.92,0,0,1-1.459.269,4.506,4.506,0,0,1-.943-.112l.18,1.19a4.2,4.2,0,0,0,.763.067,4.293,4.293,0,0,0,1.526-.292,8.6,8.6,0,0,1,6.083-.067,6.509,6.509,0,0,0,1.459.314v.224H92.3a.314.314,0,0,0,0,.628h2.9a.723.723,0,0,1,.718.718h5.364l.112-.718.09-.628.045-.269h0l.18-1.19A2.864,2.864,0,0,1,100.938,103.321Z" transform="translate(-80.368 -88.363)" fill="#e6aa55" opacity="0.7"/>
        <path id="Path_4635" data-name="Path 4635" d="M142.328,55.722A6.253,6.253,0,0,0,137.3,51.3l.045.067s3.142,1.3,3.142,4.2A8.248,8.248,0,0,1,142.328,55.722Z" transform="translate(-120.232 -48.686)" fill="#e6aa55" opacity="0.7"/>
        <path id="Path_4636" data-name="Path 4636" d="M93.135,58.074a4.412,4.412,0,0,0-2.4-3.861,6.517,6.517,0,0,0-11.222-2.424,5.613,5.613,0,0,1-4.556,1.93h-.067a4.5,4.5,0,0,0-4.511,4.2,4.336,4.336,0,0,0,1.212,3.277,4.55,4.55,0,0,0,1.975,1.212l.449,2.9H89.477l.449-2.918A4.464,4.464,0,0,0,93.135,58.074Zm-3.86,4.444-.112.7H80.252a.314.314,0,0,0,0,.628h8.821l-.135.808H74.551l-.337-2.132h.022c.045,0,.112.022.157.022a4.331,4.331,0,0,0,.763,0h.022a4.286,4.286,0,0,0,.741-.135c.022,0,.045-.022.067-.022a1.3,1.3,0,0,0,.314-.112,7.038,7.038,0,0,0,.9-.292,8.433,8.433,0,0,1,5.05.2,6.516,6.516,0,0,0,2.177.359,7.054,7.054,0,0,0,2.357-.426,4.572,4.572,0,0,0,.494.2,4.43,4.43,0,0,0,1.324.224h.269A1.156,1.156,0,0,0,89.275,62.518Zm.382-.7-.067.022c-.112.022-.224.045-.359.067a1.814,1.814,0,0,1-.359.022h0a3.809,3.809,0,0,1-1.234-.157,5.072,5.072,0,0,0,2.11-2.334.313.313,0,0,0-.584-.224,4.162,4.162,0,0,1-2.312,2.222h0l-.135.045a5.891,5.891,0,0,1-2.244.449,5.763,5.763,0,0,1-1.953-.337c-.135-.045-.247-.09-.382-.135a.2.2,0,0,0-.112-.022l-.269-.067c-.045-.022-.09-.022-.135-.045-.09-.022-.157-.045-.247-.067-.045,0-.112-.022-.157-.022-.067-.022-.157-.022-.224-.045-.045,0-.112-.022-.157-.022-.067,0-.157-.022-.224-.022s-.112-.022-.18-.022-.157-.022-.224-.022h-.18a.763.763,0,0,1-.224-.022h-.83a.494.494,0,0,0-.18.022,4.123,4.123,0,0,0,1.549-2.514.317.317,0,0,0-.628-.09,3.991,3.991,0,0,1-2.693,2.873c-.045,0-.067.022-.112.022a1.264,1.264,0,0,0-.269.09c-.045.022-.09.022-.135.045l-.4.135a1.452,1.452,0,0,1-.292.09c-.022,0-.045.022-.067.022-.09.022-.157.045-.247.067a.082.082,0,0,0-.067.022c-.09.022-.18.022-.269.045h-.045c-.112,0-.224.022-.337.022h0a1.7,1.7,0,0,1-.337-.022c-.067,0-.135-.022-.2-.022a.135.135,0,0,1-.09-.022c-.09-.022-.157-.022-.247-.045h-.045a3.859,3.859,0,0,1-1.84-1.077,3.775,3.775,0,0,1,2.806-6.374h.067a6.316,6.316,0,0,0,5.05-2.155,5.9,5.9,0,0,1,10.01,1.773,4.544,4.544,0,0,0-3.793.92.318.318,0,0,0-.022.449.357.357,0,0,0,.224.112.244.244,0,0,0,.2-.09,3.51,3.51,0,0,1,5.881,2.693A3.727,3.727,0,0,1,89.656,61.822Z" transform="translate(-68.324 -47.29)"/>
        <path id="Path_4637" data-name="Path 4637" d="M70.871,53.8a3.476,3.476,0,0,1-2.985,1.481c-.269,0-.539.045-.786.067a4.181,4.181,0,0,0-.763.157,5.834,5.834,0,0,0-1.459.584,6.985,6.985,0,0,0-2.357,2.087,7.556,7.556,0,0,0-1.257,2.985,5.663,5.663,0,0,1,.808-3.277,6.3,6.3,0,0,1,1.077-1.369,7.143,7.143,0,0,1,1.414-1.032,6.546,6.546,0,0,1,3.367-.741A3.768,3.768,0,0,0,70.871,53.8Z" transform="translate(-61.255 -50.625)"/>
        <path id="Path_4638" data-name="Path 4638" d="M135.785,50.417a6.923,6.923,0,0,0-.943-2.828,6.418,6.418,0,0,0-2-2.11l-.067-.045-.045-.09a9.333,9.333,0,0,0-1.638-2.514,8.934,8.934,0,0,0-5.3-2.738,9.582,9.582,0,0,0-3.1.067,7.3,7.3,0,0,1,1.526-.4c.269-.045.539-.067.786-.09.269,0,.539-.022.808,0a7.907,7.907,0,0,1,3.12.786,9.167,9.167,0,0,1,2.626,1.908,8.6,8.6,0,0,1,1.706,2.761l-.112-.135a6.353,6.353,0,0,1,2,2.424A5.607,5.607,0,0,1,135.785,50.417Z" transform="translate(-108.909 -39.656)"/>
        <path id="Path_4639" data-name="Path 4639" d="M93.783,141.345c.673,0,1.19-.382,1.19-.853V140.2H91v.292c0,.471.539.853,1.19.853Z" transform="translate(-84.324 -117.633)"/>
        <path id="Path_4640" data-name="Path 4640" d="M136.606,141.345c.673,0,1.19-.382,1.19-.853V140.2h-4v.292c0,.471.539.853,1.19.853Z" transform="translate(-117.517 -117.633)"/>
        <path id="Path_4641" data-name="Path 4641" d="M101.033,127.4H94.569c-1.84,0-3.367.965-3.569,2.2h13.6C104.4,128.365,102.873,127.4,101.033,127.4Z" transform="translate(-84.324 -107.706)"/>
      </g>
    </g>
  </g>
</svg>
